<svg width="147" height="34" viewBox="0 0 147 34" fill="none" xmlns="http://www.w3.org/2000/svg"><script xmlns=""/>
<g clip-path="url(#clip0_7209_705)">
<path d="M129.777 1.03476C129.409 0.468096 128.797 0.0492554 128.086 0.0492554C127.376 0.0492554 126.739 0.418821 126.445 1.03476L118.164 15.4971C121.104 17.1971 124.509 18.1826 128.16 18.1826C131.81 18.1826 135.216 17.1971 138.156 15.4971L129.777 1.03476Z" fill="#69BE28"/>
<path d="M145.114 33.729C145.775 33.729 146.461 33.3594 146.755 32.7435C147.123 32.1275 147.074 31.3884 146.755 30.8217L138.474 16.384C135.534 18.084 132.962 20.5724 131.149 23.7507C129.336 26.9043 128.478 30.3782 128.478 33.8029L145.114 33.729Z" fill="#69BE28"/>
<path d="M110.911 33.729C110.25 33.729 109.564 33.3101 109.221 32.6942C108.853 32.0782 108.902 31.3391 109.221 30.7724L117.575 16.3101C120.515 18.0101 123.088 20.4985 124.901 23.6768C126.714 26.855 127.571 30.3043 127.522 33.729H110.911Z" fill="#69BE28"/>
<path d="M8.2565 11.4565C8.1585 11.8753 8.0605 12.2942 7.84 12.5898C7.644 12.9594 7.3745 13.2058 7.007 13.4275C6.6395 13.6246 6.223 13.7478 5.782 13.7478C5.341 13.7478 4.9 13.6493 4.557 13.4275C4.1895 13.2304 3.9445 12.9594 3.724 12.5898C3.528 12.2203 3.3565 11.8753 3.2585 11.4565C3.1605 11.0377 3.1115 10.5695 3.1115 10.1507C3.1115 9.68259 3.1605 9.26375 3.2585 8.79563C3.3565 8.37679 3.528 8.00723 3.724 7.6623C3.92 7.34201 4.1895 7.04636 4.557 6.87389C4.9245 6.67679 5.341 6.5536 5.8555 6.5536C6.37 6.5536 6.7865 6.65216 7.0805 6.87389C7.399 7.071 7.693 7.34201 7.9135 7.6623C8.1095 7.98259 8.281 8.32752 8.379 8.79563C8.477 9.21447 8.477 9.68259 8.477 10.1507C8.379 10.5695 8.3055 11.0377 8.2565 11.4565ZM8.2565 5.9623C7.889 5.39563 7.4235 4.97679 6.811 4.73042C6.1985 4.41013 5.586 4.2623 4.949 4.2623C4.116 4.2623 3.4055 4.41013 2.793 4.73042C2.1805 5.05071 1.666 5.51882 1.2495 6.03621C0.833 6.5536 0.539 7.16955 0.3185 7.90868C0.1225 8.62317 0 9.3623 0 10.0768C0 10.8652 0.098 11.5797 0.3185 12.2942C0.539 13.0087 0.833 13.6493 1.2495 14.2159C1.666 14.7826 2.1805 15.2014 2.793 15.5217C3.4055 15.842 4.1405 15.9898 4.998 15.9898C5.7085 15.9898 6.3945 15.842 6.958 15.571C7.5215 15.3 7.987 14.8565 8.3545 14.2652H8.428V15.7188H11.319V0.34491H8.2565V5.9623Z" fill="#455565"/>
<path d="M16.758 0.320251H13.72V2.85793H16.758V0.320251Z" fill="#455565"/>
<path d="M16.758 4.55798H13.72V15.7435H16.758V4.55798Z" fill="#455565"/>
<path d="M35.1084 5.1739C34.7409 4.85361 34.3244 4.60724 33.8099 4.50869C33.2954 4.36086 32.7809 4.31158 32.1684 4.31158C31.3844 4.31158 30.7229 4.50869 30.1594 4.87825C29.5959 5.24782 29.1304 5.71593 28.8119 6.18405C28.4934 5.51883 28.1014 5.00144 27.4644 4.73043C26.9009 4.45941 26.2394 4.31158 25.5534 4.31158C24.8674 4.31158 24.1569 4.45941 23.5934 4.7797C23.0299 5.09999 22.5644 5.56811 22.1479 6.13477H22.0989V4.55796H19.2324V15.7435H22.2704V9.26376C22.2704 8.69709 22.3684 8.27825 22.5399 7.90869C22.6869 7.53912 22.9074 7.29274 23.1034 7.12028C23.2994 6.97245 23.5689 6.79999 23.7649 6.75072C24.0344 6.70144 24.1814 6.65216 24.3284 6.65216C24.7939 6.65216 25.2104 6.75072 25.4064 6.92318C25.6759 7.071 25.8229 7.29274 25.9209 7.5884C26.0189 7.85941 26.0679 8.15506 26.1169 8.47535V15.7188H29.1549V9.51014C29.1549 9.14057 29.1549 8.84492 29.2039 8.47535C29.2529 8.10579 29.3509 7.85941 29.5224 7.53912C29.6694 7.26811 29.8899 7.07101 30.1349 6.8739C30.4044 6.72608 30.7474 6.60289 31.1639 6.60289C31.5804 6.60289 31.9479 6.65216 32.1929 6.79999C32.4624 6.94782 32.6584 7.16956 32.7564 7.36666C32.8544 7.63767 32.9524 7.88405 33.0259 8.25361C33.0749 8.5739 33.0749 8.91883 33.0749 9.2884V15.6449H36.1129V8.27825C36.1129 7.56376 36.0149 6.92318 35.7944 6.40579C35.7209 5.91303 35.4024 5.49419 35.1084 5.1739Z" fill="#455565"/>
<path d="M41.1356 8.96813C41.1356 8.77103 41.1846 8.50001 41.2826 8.25363C41.3806 8.00726 41.4786 7.73624 41.6991 7.46523C41.8951 7.19421 42.1646 6.99711 42.4831 6.84929C42.8016 6.70146 43.1936 6.57827 43.7081 6.57827C44.4186 6.57827 45.0066 6.77537 45.3496 7.19421C45.6926 7.61305 45.9621 8.17972 46.1336 8.94349H41.1356V8.96813ZM47.9221 6.33189C47.4566 5.71595 46.8931 5.24784 46.1826 4.829C45.4721 4.45943 44.6391 4.26233 43.7081 4.26233C42.8751 4.26233 42.1156 4.41016 41.3806 4.73044C40.7191 5.05073 40.0821 5.44494 39.5676 5.96233C39.0531 6.47972 38.6856 7.09566 38.3916 7.83479C38.1221 8.54929 37.9751 9.33769 37.9751 10.1754C37.9751 11.0623 38.1221 11.8261 38.3916 12.5652C38.6611 13.2797 39.0041 13.9203 39.5186 14.4377C39.9841 14.9551 40.5966 15.3739 41.3316 15.6203C42.0421 15.8913 42.8261 16.0391 43.7081 16.0391C44.9331 16.0391 46.0356 15.7189 46.9421 15.1522C47.8241 14.5855 48.4856 13.6 48.9021 12.2942H46.2316C46.1336 12.6638 45.8641 12.9594 45.3986 13.2797C44.9331 13.6 44.4186 13.7478 43.8061 13.7478C42.9241 13.7478 42.3116 13.5507 41.8461 13.0826C41.3806 12.6145 41.1356 11.9 41.0621 10.9145H49.0981C49.1471 10.0275 49.0981 9.2145 48.9021 8.4261C48.7061 7.63769 48.3876 6.94784 47.9221 6.33189Z" fill="#455565"/>
<path d="M61.3724 15.7435V8.84494C61.3724 8.17972 61.3234 7.48987 61.1764 6.97247C61.0784 6.40581 60.8579 5.93769 60.5639 5.51885C60.2454 5.10001 59.8534 4.80436 59.3389 4.58262C58.8244 4.38552 58.1629 4.26233 57.3299 4.26233C56.6684 4.26233 56.0314 4.41016 55.4189 4.73044C54.8064 5.05073 54.2919 5.51885 53.9244 6.13479H53.8754V4.58262H50.9844V15.7681H53.9979V9.85508C53.9979 8.72175 54.1939 7.88407 54.5614 7.41595C54.9289 6.89856 55.5414 6.70146 56.3744 6.70146C57.0849 6.70146 57.5994 6.89856 57.9179 7.36668C58.2364 7.83479 58.3344 8.50001 58.3344 9.43624V15.7435H61.3724Z" fill="#455565"/>
<path d="M73.4264 12.171C73.4264 11.6536 73.3284 11.2348 73.1079 10.8652C72.9119 10.4956 72.6424 10.2492 72.3239 9.97823C72.0054 9.70722 71.6134 9.55939 71.1969 9.41156C70.7804 9.26374 70.3149 9.14055 69.8984 9.042C69.4819 8.94345 69.0164 8.8449 68.5999 8.77098C68.1834 8.67243 67.8159 8.57388 67.5219 8.45069C67.2034 8.35214 66.9584 8.17968 66.7379 8.03185C66.5419 7.88403 66.4194 7.61301 66.4194 7.36664C66.4194 7.16954 66.4684 6.9478 66.5664 6.79997C66.6644 6.65214 66.8359 6.52896 66.9829 6.47968C67.1299 6.4304 67.3504 6.38113 67.5464 6.33185C67.7424 6.33185 67.9139 6.28258 68.1099 6.28258C68.6734 6.28258 69.1389 6.38113 69.5064 6.60287C69.9229 6.79997 70.1189 7.21881 70.1679 7.78548H73.1079C73.0589 7.12026 72.8384 6.55359 72.5934 6.08548C72.2749 5.61736 71.9319 5.2478 71.5154 5.00142C71.0499 4.7304 70.5844 4.5333 70.0209 4.43475C69.4574 4.3362 68.8939 4.28693 68.2814 4.28693C67.6689 4.28693 67.1054 4.3362 66.5419 4.43475C65.9784 4.5333 65.4639 4.75504 64.9984 5.00142C64.5329 5.27243 64.1654 5.61736 63.9204 6.08548C63.6754 6.55359 63.5039 7.12026 63.5039 7.83475C63.5039 8.30287 63.6019 8.72171 63.8224 9.06664C64.0184 9.4362 64.2879 9.68258 64.6064 9.90432C64.9249 10.1014 65.3169 10.3232 65.7334 10.4217C66.1499 10.5695 66.6154 10.6927 67.0319 10.7913C68.1099 10.9884 68.9919 11.2594 69.5554 11.4565C70.1679 11.6536 70.4864 12.0232 70.4864 12.4913C70.4864 12.7623 70.4374 13.0087 70.2904 13.1565C70.1924 13.3043 69.9719 13.4768 69.8249 13.5753C69.6289 13.6739 69.4084 13.7724 69.2124 13.8463C68.9429 13.8956 68.7469 13.8956 68.5509 13.8956C68.2324 13.8956 67.9874 13.8463 67.6689 13.7971C67.3994 13.7478 67.1544 13.6 66.9584 13.4768C66.7624 13.329 66.5419 13.1072 66.4439 12.9101C66.2969 12.6391 66.2479 12.3927 66.2479 12.0724H63.3569C63.4059 12.7869 63.5529 13.4275 63.8714 13.9449C64.1899 14.4623 64.5819 14.8319 65.0474 15.1275C65.5129 15.4478 66.0764 15.6449 66.6889 15.7434C67.3014 15.842 67.9139 15.9405 68.5999 15.9405C69.2124 15.9405 69.8249 15.8913 70.4619 15.7434C71.0744 15.6449 71.5889 15.4232 72.0544 15.1275C72.5199 14.8072 72.9364 14.413 73.1814 13.9449C73.2794 13.5261 73.4264 12.9101 73.4264 12.171Z" fill="#455565"/>
<path d="M78.3266 0.320251H75.2886V2.85793H78.3266V0.320251Z" fill="#455565"/>
<path d="M78.3266 4.55798H75.2886V15.7435H78.3266V4.55798Z" fill="#455565"/>
<path d="M83.1531 8.86955C83.2511 8.45071 83.4226 8.03187 83.6186 7.73622C83.8146 7.41593 84.0841 7.12028 84.4516 6.89854C84.8191 6.70144 85.2356 6.57825 85.7501 6.57825C86.2646 6.57825 86.6811 6.6768 87.0486 6.89854C87.4161 7.09564 87.6611 7.36666 87.8816 7.73622C88.0776 8.05651 88.2491 8.45071 88.3471 8.86955C88.4451 9.2884 88.4451 9.75651 88.4451 10.1754C88.4451 10.6435 88.3961 11.0623 88.3471 11.4812C88.2491 11.9 88.0776 12.3188 87.8816 12.6145C87.6856 12.984 87.4161 13.2304 87.0486 13.4522C86.6811 13.6493 86.2646 13.7725 85.7501 13.7725C85.2356 13.7725 84.8191 13.6739 84.4516 13.4522C84.0841 13.2551 83.8391 12.984 83.6186 12.6145C83.4226 12.2449 83.2511 11.9 83.1531 11.4812C83.0551 11.0623 83.0551 10.5942 83.0551 10.1754C83.0061 9.73187 83.0551 9.2884 83.1531 8.86955ZM81.5606 14.4623C82.0751 14.9797 82.6386 15.3493 83.3736 15.6449C84.0841 15.9159 84.8681 16.0638 85.7501 16.0638C86.6321 16.0638 87.3916 15.9159 88.1266 15.6449C88.8371 15.3739 89.4251 14.9797 89.9396 14.4623C90.4541 13.9449 90.8216 13.329 91.0666 12.5898C91.3361 11.8754 91.4831 11.0869 91.4831 10.1507C91.4831 9.26376 91.3361 8.45071 91.0666 7.71158C90.7971 6.99709 90.4051 6.35651 89.9396 5.83912C89.4251 5.32173 88.8616 4.90289 88.1266 4.65651C87.4161 4.3855 86.6321 4.23767 85.7501 4.23767C84.8681 4.23767 84.1086 4.3855 83.3736 4.65651C82.6631 4.92753 82.0751 5.32173 81.5606 5.83912C81.0461 6.35651 80.6786 6.97245 80.4336 7.71158C80.1886 8.45071 80.0171 9.26376 80.0171 10.1507C80.0171 11.0377 80.1641 11.8507 80.4336 12.5898C80.6296 13.329 81.0461 13.9449 81.5606 14.4623Z" fill="#455565"/>
<path d="M96.04 9.90436C96.04 8.77102 96.236 7.93334 96.6035 7.46523C96.971 6.94784 97.5835 6.75074 98.4165 6.75074C99.127 6.75074 99.6415 6.94784 99.96 7.41595C100.278 7.88407 100.376 8.54929 100.376 9.48552V15.7928H103.414V8.84494C103.414 8.17972 103.365 7.48987 103.218 6.97247C103.12 6.40581 102.9 5.93769 102.606 5.51885C102.287 5.10001 101.895 4.80436 101.381 4.58262C100.866 4.36088 100.205 4.26233 99.372 4.26233C98.7105 4.26233 98.0735 4.41016 97.461 4.73044C96.8485 5.05073 96.334 5.51885 95.9665 6.13479H95.893V4.58262H93.002V15.7681H96.04V9.90436Z" fill="#455565"/>
<path d="M67.8161 29.4174C67.7181 29.8362 67.6201 30.2551 67.3996 30.5507C67.2036 30.9203 66.9341 31.1667 66.5666 31.3884C66.1991 31.5855 65.7826 31.7087 65.3416 31.7087C64.9006 31.7087 64.4596 31.6101 64.1166 31.3884C63.7736 31.1667 63.5041 30.9203 63.2836 30.5507C63.0876 30.1812 62.9161 29.8362 62.8181 29.4174C62.7201 28.9985 62.6711 28.5304 62.6711 28.1116C62.6711 27.6435 62.7201 27.2246 62.8181 26.7565C62.9161 26.3377 63.0876 25.9681 63.2836 25.6232C63.4796 25.3029 63.7491 25.0072 64.1166 24.8348C64.4841 24.6377 64.9006 24.5145 65.4151 24.5145C65.9296 24.5145 66.3461 24.613 66.6401 24.8348C66.9586 25.0319 67.2526 25.3029 67.4731 25.6232C67.6691 25.9435 67.8406 26.2884 67.9386 26.7565C68.0366 27.1754 68.0366 27.6435 68.0366 28.1116C67.9141 28.5551 67.8651 29.0232 67.8161 29.4174ZM67.8161 23.9478C67.4486 23.3811 66.9831 22.9623 66.3706 22.7159C65.7581 22.4449 65.1456 22.2971 64.5086 22.2971C63.6756 22.2971 62.9651 22.4449 62.3526 22.7652C61.7401 23.0855 61.2256 23.5536 60.8091 24.071C60.3926 24.5884 60.0986 25.2043 59.8781 25.9435C59.6821 26.6087 59.5596 27.3478 59.5596 28.1116C59.5596 28.8754 59.6576 29.6145 59.8781 30.329C60.0741 31.0435 60.3926 31.684 60.8091 32.2507C61.2256 32.8174 61.7401 33.2362 62.3526 33.5565C62.9651 33.8768 63.7001 34.0246 64.5576 34.0246C65.2681 34.0246 65.9541 33.8768 66.5176 33.6058C67.0811 33.3348 67.5466 32.8913 67.9141 32.3H67.9631V33.7536H70.8541V18.3058H67.8161V23.9478Z" fill="#455565"/>
<path d="M80.0661 29.3681C80.0661 29.5159 80.0661 29.7869 80.0171 30.0333C79.9681 30.3536 79.8701 30.6 79.6986 30.871C79.5516 31.142 79.2821 31.3884 78.9881 31.5855C78.6696 31.7826 78.2041 31.9058 77.5916 31.9058C77.3221 31.9058 77.1261 31.9058 76.8811 31.8565C76.6851 31.8072 76.4646 31.7579 76.2686 31.6594C76.1216 31.5608 75.9501 31.3884 75.8521 31.1913C75.7541 30.9942 75.7051 30.7724 75.7051 30.526C75.7051 30.2058 75.7541 30.0087 75.8521 29.8116C75.9501 29.6144 76.1216 29.442 76.2686 29.3434C76.4156 29.2449 76.6361 29.1463 76.8321 29.0231C77.0281 28.9739 77.2976 28.9246 77.4936 28.8753C77.7631 28.826 77.9591 28.7768 78.2041 28.7768C78.4736 28.7275 78.6696 28.7275 78.9146 28.6782C79.1106 28.6289 79.3311 28.5797 79.5271 28.5304C79.7231 28.4811 79.8946 28.3826 79.9926 28.2594V29.3927H80.0661V29.3681ZM83.1041 31.2405V25.4507C83.1041 24.7855 82.9571 24.2188 82.6386 23.8492C82.3201 23.4304 81.9771 23.1347 81.4626 22.8637C80.9971 22.6666 80.4826 22.4942 79.9191 22.3956C79.3556 22.2971 78.7921 22.2971 78.2286 22.2971C77.6161 22.2971 77.0036 22.3463 76.3666 22.4942C75.7541 22.5927 75.2396 22.8144 74.7251 23.1101C74.2596 23.4304 73.8431 23.7753 73.5491 24.2434C73.2306 24.7115 73.0346 25.3275 73.0346 26.0666H76.0481C76.0971 25.4507 76.3176 25.0318 76.6606 24.7608C77.0281 24.4898 77.4936 24.3913 78.1061 24.3913C78.3756 24.3913 78.6206 24.3913 78.8901 24.4405C79.1596 24.4898 79.3556 24.5391 79.5026 24.6376C79.6496 24.7362 79.8211 24.9087 79.9191 25.1058C80.0171 25.3029 80.0661 25.5739 80.0661 25.8942C80.0661 26.2144 79.9681 26.4608 79.7966 26.6087C79.6006 26.7565 79.3311 26.9289 78.9636 26.9782C78.5961 27.0768 78.2531 27.126 77.7876 27.1753C77.3221 27.2246 76.9056 27.2739 76.4401 27.3231C75.9746 27.3724 75.5091 27.471 75.0926 27.6434C74.6271 27.742 74.2106 27.9637 73.9166 28.2101C73.5491 28.4811 73.3041 28.7768 73.0346 29.1956C72.8386 29.6144 72.7161 30.1318 72.7161 30.7478C72.7161 31.3144 72.8141 31.8318 73.0346 32.2507C73.2306 32.6695 73.5001 33.0391 73.8676 33.2855C74.2351 33.5565 74.5781 33.7536 75.0436 33.9014C75.5091 34 75.9746 34.0985 76.5381 34.0985C77.1996 34.0985 77.8856 34 78.5471 33.7782C79.2086 33.5811 79.7721 33.2115 80.2376 32.7434C80.2376 32.9405 80.2866 33.113 80.2866 33.3101C80.3356 33.4579 80.3846 33.6797 80.4336 33.8275H83.5206C83.3736 33.6304 83.2511 33.2608 83.2021 32.7927C83.1531 32.226 83.1041 31.7579 83.1041 31.2405Z" fill="#455565"/>
<path d="M89.3514 19.2174H86.3134V22.5435H84.4514V24.6131H86.3134V31.1913C86.3134 31.758 86.4114 32.2261 86.5829 32.5464C86.7789 32.916 87.0484 33.1623 87.3669 33.3348C87.6854 33.5319 88.0284 33.6551 88.4939 33.7044C88.9104 33.7536 89.3759 33.8029 89.8414 33.8029H90.7724C91.0909 33.8029 91.3849 33.7536 91.6544 33.7044V31.3145C91.5074 31.3638 91.3359 31.3638 91.1889 31.3638H90.6744C90.1599 31.3638 89.7924 31.2652 89.6454 31.0928C89.4984 30.9449 89.3759 30.5754 89.3759 30.058V24.6131H91.5809V22.5435H89.3759L89.3514 19.2174Z" fill="#455565"/>
<path d="M100.352 29.3681C100.352 29.5159 100.352 29.7869 100.303 30.0333C100.254 30.3536 100.156 30.6 99.9845 30.871C99.8375 31.142 99.568 31.3884 99.274 31.5855C98.9555 31.7826 98.49 31.9058 97.8775 31.9058C97.608 31.9058 97.412 31.9058 97.167 31.8565C96.971 31.8072 96.7505 31.7579 96.5545 31.6594C96.4075 31.5608 96.236 31.3884 96.138 31.1913C96.04 30.9942 95.991 30.7724 95.991 30.526C95.991 30.2058 96.04 30.0087 96.138 29.8116C96.236 29.6144 96.4075 29.442 96.5545 29.3434C96.7015 29.2449 96.922 29.1463 97.118 29.0231C97.314 28.9739 97.5835 28.9246 97.7795 28.8753C98.049 28.826 98.245 28.7768 98.49 28.7768C98.7595 28.7275 98.9555 28.7275 99.2005 28.6782C99.3965 28.6289 99.617 28.5797 99.813 28.5304C100.009 28.4811 100.181 28.3826 100.279 28.2594V29.3927H100.352V29.3681ZM103.513 32.6942C103.464 32.226 103.415 31.7579 103.415 31.2405V25.4507C103.415 24.7855 103.268 24.2188 102.949 23.8492C102.631 23.4304 102.288 23.1347 101.773 22.8637C101.308 22.6666 100.793 22.4942 100.23 22.3956C99.666 22.2971 99.1025 22.2971 98.539 22.2971C97.9265 22.2971 97.314 22.3463 96.677 22.4942C96.0645 22.5927 95.55 22.8144 95.0355 23.1101C94.57 23.4304 94.1535 23.7753 93.8595 24.2434C93.541 24.7115 93.345 25.3275 93.345 26.0666H96.383C96.432 25.4507 96.6525 25.0318 96.9955 24.7608C97.3385 24.4898 97.8285 24.3913 98.441 24.3913C98.7105 24.3913 98.9555 24.3913 99.225 24.4405C99.4945 24.4898 99.6905 24.5391 99.8375 24.6376C99.9845 24.7362 100.156 24.9087 100.254 25.1058C100.352 25.3029 100.401 25.5739 100.401 25.8942C100.401 26.2144 100.303 26.4608 100.132 26.6087C99.9355 26.7565 99.666 26.9289 99.2985 26.9782C98.931 27.0768 98.588 27.126 98.1225 27.1753C97.657 27.2246 97.2405 27.2739 96.775 27.3231C96.3095 27.3724 95.844 27.471 95.4275 27.6434C94.962 27.742 94.5455 27.9637 94.2515 28.2101C93.884 28.4811 93.639 28.7768 93.3695 29.1956C93.1735 29.6144 93.051 30.1318 93.051 30.7478C93.051 31.3144 93.149 31.8318 93.3695 32.2507C93.5655 32.6695 93.835 33.0391 94.2025 33.2855C94.57 33.5565 94.913 33.7536 95.3785 33.9014C95.844 34 96.3095 34.0985 96.873 34.0985C97.5345 34.0985 98.2205 34 98.882 33.7782C99.5435 33.5811 100.107 33.2115 100.573 32.7434C100.573 32.9405 100.622 33.113 100.622 33.3101C100.671 33.4579 100.72 33.6797 100.769 33.8275H103.856C103.66 33.4579 103.562 33.1623 103.513 32.6942Z" fill="#455565"/>
</g>
<defs>
<clipPath id="clip0_7209_705">
<rect width="147" height="34" fill="white"/>
</clipPath>
</defs>
</svg>